<?xml version="1.0" encoding="UTF-8"?>
<svg version="1.1" xmlns="http://www.w3.org/2000/svg" width="230" height="230">
<path d="M0 0 C1.75763672 0.47566406 1.75763672 0.47566406 3.55078125 0.9609375 C20.13563196 5.89961533 35.09728962 14.53606593 48 26 C48.90105469 26.80050781 49.80210937 27.60101562 50.73046875 28.42578125 C65.88649594 42.78288608 76.49297499 61.98034439 82 82 C82.31839844 83.06089844 82.63679687 84.12179688 82.96484375 85.21484375 C87.36072135 102.57552165 87.1351151 124.86207522 82 142 C81.68289062 143.17175781 81.36578125 144.34351563 81.0390625 145.55078125 C76.10038467 162.13563196 67.46393407 177.09728962 56 190 C54.79923828 191.35158203 54.79923828 191.35158203 53.57421875 192.73046875 C39.21711392 207.88649594 20.01965561 218.49297499 0 224 C-1.06089844 224.31839844 -2.12179688 224.63679687 -3.21484375 224.96484375 C-20.57552165 229.36072135 -42.86207522 229.1351151 -60 224 C-61.17175781 223.68289062 -62.34351562 223.36578125 -63.55078125 223.0390625 C-80.13563196 218.10038467 -95.09728962 209.46393407 -108 198 C-109.35158203 196.79923828 -109.35158203 196.79923828 -110.73046875 195.57421875 C-125.88649594 181.21711392 -136.49297499 162.01965561 -142 142 C-142.31839844 140.93910156 -142.63679687 139.87820312 -142.96484375 138.78515625 C-147.36072135 121.42447835 -147.1351151 99.13792478 -142 82 C-141.68289062 80.82824219 -141.36578125 79.65648438 -141.0390625 78.44921875 C-136.10038467 61.86436804 -127.46393407 46.90271038 -116 34 C-115.19949219 33.09894531 -114.39898437 32.19789062 -113.57421875 31.26953125 C-99.21711392 16.11350406 -80.01965561 5.50702501 -60 0 C-58.93910156 -0.31839844 -57.87820312 -0.63679687 -56.78515625 -0.96484375 C-39.42447835 -5.36072135 -17.13792478 -5.1351151 0 0 Z " fill="#010101" transform="translate(145,3)"/>
<path d="M0 0 C1.75763672 0.47566406 1.75763672 0.47566406 3.55078125 0.9609375 C20.13563196 5.89961533 35.09728962 14.53606593 48 26 C48.90105469 26.80050781 49.80210937 27.60101562 50.73046875 28.42578125 C65.88649594 42.78288608 76.49297499 61.98034439 82 82 C82.31839844 83.06089844 82.63679687 84.12179688 82.96484375 85.21484375 C87.36072135 102.57552165 87.1351151 124.86207522 82 142 C81.68289062 143.17175781 81.36578125 144.34351563 81.0390625 145.55078125 C76.10038467 162.13563196 67.46393407 177.09728962 56 190 C54.79923828 191.35158203 54.79923828 191.35158203 53.57421875 192.73046875 C39.21711392 207.88649594 20.01965561 218.49297499 0 224 C-1.06089844 224.31839844 -2.12179688 224.63679687 -3.21484375 224.96484375 C-20.57552165 229.36072135 -42.86207522 229.1351151 -60 224 C-61.17175781 223.68289062 -62.34351562 223.36578125 -63.55078125 223.0390625 C-80.13563196 218.10038467 -95.09728962 209.46393407 -108 198 C-109.35158203 196.79923828 -109.35158203 196.79923828 -110.73046875 195.57421875 C-125.88649594 181.21711392 -136.49297499 162.01965561 -142 142 C-142.31839844 140.93910156 -142.63679687 139.87820312 -142.96484375 138.78515625 C-147.36072135 121.42447835 -147.1351151 99.13792478 -142 82 C-141.68289062 80.82824219 -141.36578125 79.65648438 -141.0390625 78.44921875 C-136.10038467 61.86436804 -127.46393407 46.90271038 -116 34 C-115.19949219 33.09894531 -114.39898437 32.19789062 -113.57421875 31.26953125 C-99.21711392 16.11350406 -80.01965561 5.50702501 -60 0 C-58.93910156 -0.31839844 -57.87820312 -0.63679687 -56.78515625 -0.96484375 C-39.42447835 -5.36072135 -17.13792478 -5.1351151 0 0 Z M-99 30 C-99.99 30.66 -100.98 31.32 -102 32 C-102 32.66 -102 33.32 -102 34 C-103.98 34.99 -103.98 34.99 -106 36 C-106 36.66 -106 37.32 -106 38 C-106.598125 38.2475 -107.19625 38.495 -107.8125 38.75 C-110.31626919 40.18072525 -111.48072388 41.5691582 -113 44 C-113 44.66 -113 45.32 -113 46 C-113.66 46 -114.32 46 -115 46 C-116.47144104 47.96192139 -117.73136522 49.9051864 -119 52 C-119.54140625 52.88558594 -120.0828125 53.77117188 -120.640625 54.68359375 C-137.14323168 82.27164709 -140.25214027 110.68842141 -133.37890625 141.8125 C-130.54255776 152.52367939 -125.09927062 162.63286629 -119.1875 171.9375 C-118.80255371 172.5469043 -118.41760742 173.15630859 -118.02099609 173.78417969 C-117.07240947 175.22952505 -116.04306491 176.62128487 -115 178 C-114.34 178 -113.68 178 -113 178 C-112.7421875 178.57234375 -112.484375 179.1446875 -112.21875 179.734375 C-110.88634058 182.21128995 -109.34943882 184.1341166 -107.5 186.25 C-106.8915625 186.95640625 -106.283125 187.6628125 -105.65625 188.390625 C-104.14583632 190.23229504 -104.14583632 190.23229504 -102 190 C-102 190.66 -102 191.32 -102 192 C-86.22304008 205.46481924 -66.61840235 215.1475293 -46 218 C-44.91332031 218.1753125 -43.82664062 218.350625 -42.70703125 218.53125 C-14.99363044 222.03557887 13.68629956 213.62971561 36 197 C40.18943974 193.54292708 44.25779682 189.93813005 48 186 C48 185.34 48 184.68 48 184 C48.66 184 49.32 184 50 184 C52.39820305 181.36315253 52.39820305 181.36315253 53 178 C53.66 178 54.32 178 55 178 C56.50600147 176.00937892 57.85781965 174.04289678 59.1875 171.9375 C59.58606201 171.3091626 59.98462402 170.6808252 60.39526367 170.03344727 C72.86752097 149.91585822 77.9748931 128.58612342 77 105 C76.97035156 104.11570312 76.94070312 103.23140625 76.91015625 102.3203125 C75.57677724 80.40086239 65.86955162 59.72591363 52 43 C51.38253906 42.2471875 50.76507813 41.494375 50.12890625 40.71875 C39.3769055 28.08460827 24.44660073 17.99888283 9 12 C7.30810547 11.33677734 7.30810547 11.33677734 5.58203125 10.66015625 C-30.82331799 -2.57466513 -69.12095377 6.71331476 -99 30 Z " fill="#F1F1F6" transform="translate(145,3)"/>
<path d="M0 0 C9.79919909 -0.35633451 17.6592292 1.91049417 26.4375 6.1875 C27.27224854 6.59186279 28.10699707 6.99622559 28.96704102 7.4128418 C40.65980219 13.18790419 49.04495315 20.7029641 58 30 C59.65 31.65 61.3 33.3 63 35 C63 23.45 63 11.9 63 0 C67.95 0 72.9 0 78 0 C78 37.95 78 75.9 78 115 C92.85 115 107.7 115 123 115 C123 118.96 123 122.92 123 127 C103.2 127 83.4 127 63 127 C61.88064957 106.85169221 61.88064957 106.85169221 62.03515625 97.5234375 C62.04117977 95.51302722 62.04435085 93.50260672 62.04492188 91.4921875 C62.04663881 88.42622484 62.06272604 85.36417058 62.12670898 82.29882812 C62.41149475 67.46633444 60.57654106 57.56384313 51 46 C50.48879608 45.38098312 49.97759216 44.76196625 49.45089722 44.12419128 C42.18931391 35.45816817 34.21274101 28.51073632 24.33325195 22.89477539 C23.23327881 22.26949951 22.13330566 21.64422363 21 21 C20.99576806 21.55052756 20.99153612 22.10105513 20.98717594 22.66826534 C20.88400071 36.04602308 20.77531976 49.42372624 20.66066074 62.80139065 C20.60538097 69.27065218 20.55195304 75.73991818 20.50268555 82.20922852 C20.45511637 88.44674322 20.40277655 94.68420096 20.34705925 100.92164803 C20.32660184 103.30718641 20.3078945 105.69274044 20.29092598 108.0783062 C20.26695667 111.40699829 20.23689226 114.73558157 20.20532227 118.06420898 C20.1995668 119.06114273 20.19381134 120.05807648 20.18788147 121.08522034 C20.17319824 122.43775406 20.17319824 122.43775406 20.15821838 123.81761169 C20.15176583 124.6057447 20.14531328 125.3938777 20.1386652 126.20589352 C20 128 20 128 19 129 C16.83519203 129.0989294 14.66706215 129.129711 12.5 129.125 C11.3140625 129.12757813 10.128125 129.13015625 8.90625 129.1328125 C6 129 6 129 5 128 C4.9043839 126.54518505 4.87811649 125.08574514 4.87974548 123.62779236 C4.87837082 122.68403244 4.87699615 121.74027252 4.87557983 120.76791382 C4.87917511 119.72422638 4.88277039 118.68053894 4.88647461 117.60522461 C4.88632858 116.51267868 4.88618256 115.42013275 4.8860321 114.29447937 C4.88673178 110.66374767 4.89452671 107.03306654 4.90234375 103.40234375 C4.90420774 100.89270557 4.90563173 98.38306702 4.90663147 95.87342834 C4.91006652 89.93065407 4.91795727 83.98789616 4.92798096 78.04513031 C4.94023747 70.61798075 4.94562208 63.19082895 4.95117188 55.76367188 C4.96191189 42.50910527 4.97879918 29.25455379 5 16 C2.69 15.67 0.38 15.34 -2 15 C-1.34 10.05 -0.68 5.1 0 0 Z " fill="#F5F5F5" transform="translate(60,50)"/>
<path d="M0 0 C0.66 0 1.32 0 2 0 C2 11.22 2 22.44 2 34 C-2 32 -2 32 -3 30 C-2.34 30 -1.68 30 -1 30 C-0.67 20.1 -0.34 10.2 0 0 Z " fill="#333333" transform="translate(121,51)"/>
</svg>
